<svg xmlns="http://www.w3.org/2000/svg" width="18" height="18" viewBox="0 0 18 18" aria-hidden="true">
  <g fill="none" fill-rule="evenodd">
    <path
      fill="#4285F4"
      d="M17.64 9.2045c0-.638-.0573-1.2518-.1636-1.8409H9v3.4818h4.8436c-.2086 1.125-.8427 2.0782-1.7963 2.7163v2.2582h2.9082c1.7027-1.5673 2.6845-3.874 2.6845-6.6154z"
    />
    <path
      fill="#34A853"
      d="M9 18c2.43 0 4.4673-.8063 5.9564-2.18l-2.9082-2.2582c-.8063.54-1.8373.8591-3.0482.8591-2.3355 0-4.3136-1.5773-5.0209-3.6945H.9573v2.3318C2.4382 15.9964 5.4818 18 9 18z"
    />
    <path
      fill="#FBBC05"
      d="M3.9782 10.7273C3.7982 10.1873 3.6955 9.6109 3.6955 9c0-.6109.1027-1.1873.2827-1.7273V4.9409H.9573C.3473 6.1545 0 7.5255 0 9s.3473 2.8455.9573 4.0591l3.0209-2.3318z"
    />
    <path
      fill="#EA4335"
      d="M9 3.5795c1.3218 0 2.5077.4541 3.4405 1.3459l2.5814-2.5814C13.4636.8918 11.4264 0 9 0 5.4818 0 2.4382 2.0036.9573 4.9409l3.0209 2.3318C4.6855 5.1564 6.6645 3.5795 9 3.5795z"
    />
  </g>
</svg>
